<svg xmlns="http://www.w3.org/2000/svg" width="1140" height="109.989" viewBox="0 0 1140 109.989">
  <g id="wavesOpacity" opacity="0.695">
    <path id="Caminho_25" data-name="Caminho 25" d="M0,0V46.29c45.4,22.2,98.41,32.17,150.1,28,66.842-5.37,129.514-33.31,196.46-37.5,70.148-4.36,140.163,16.88,207.29,35.26,65.807,18,131.385,24.88,198.93,13.08,34.343-6,66.357-17.84,99.227-29.34C940.016,25,1057.35-14.29,1140,52.47V0Z" fill="#f2f3f5" opacity="0.25"/>
    <path id="Caminho_26" data-name="Caminho 26" d="M0,0V15.81C12.35,36.92,26.258,56.86,45.306,72.05,94.439,111.27,156.75,111,213.351,91.58c29.592-10.15,57.086-26.07,85.187-39.8,38.874-19,80.493-46,124.289-49.67,34.447-2.85,67.355,9.42,93.67,31.56,30.182,25.39,59.2,62,98.449,73,38.418,10.79,77.282-6.69,113.173-24.28s71.4-39,111.074-43.05c56.744-5.85,107.616,22.88,160.455,38.84,28.69,8.66,56.05,6.17,82.735-7.5,21.309-10.89,45.6-26.93,57.618-49.24V0Z" fill="#f2f3f5" opacity="0.5"/>
    <path id="Caminho_27" data-name="Caminho 27" d="M0,0V5.63C142.433,59,298.385,71.32,452.038,42.57c40.85-7.64,80.019-20.12,121.23-26.46,56.05-8.63,106.856,12.24,157.282,35.4C786.534,77.22,841.7,95.24,903.64,90c82.2-7,163.837-45.71,236.36-84.81V0Z" fill="#f2f3f5"/>
  </g>
</svg>
