<svg xmlns="http://www.w3.org/2000/svg" width="110.063" height="100.475" viewBox="0 0 110.063 100.475">
  <g id="upload" transform="translate(-0.584 -1.913)">
    <path id="Caminho_64" data-name="Caminho 64" d="M11.906,82.338c0-21.857-11.322-36.866-11.322-47.4S6.638,2.29,55.088,2.29s55.559,29.756,55.559,41.34C110.651,97.875,11.906,121.046,11.906,82.338Z" transform="translate(0 0.815)" fill="#191a1c"/>
    <g id="Grupo_10" data-name="Grupo 10" transform="translate(83.76 1.913)">
      <path id="Caminho_65" data-name="Caminho 65" d="M0,0H6.32V3.16H0Z" transform="translate(12.276 5.574) rotate(-45)" fill="#3585f3"/>
      <path id="Caminho_66" data-name="Caminho 66" d="M0,0H3.16V6.32H0Z" transform="translate(0 2.234) rotate(-45)" fill="#3585f3"/>
      <path id="Caminho_67" data-name="Caminho 67" d="M0,0H3.16V6.32H0Z" transform="translate(12.843 15.088) rotate(-45)" fill="#3585f3"/>
    </g>
    <path id="Caminho_68" data-name="Caminho 68" d="M77.846,55.568V16.07a6.318,6.318,0,0,0-6.32-6.32H13.07a6.318,6.318,0,0,0-6.32,6.32v39.5a6.318,6.318,0,0,0,6.32,6.32H71.527A6.318,6.318,0,0,0,77.846,55.568Z" transform="translate(13.318 16.928)" fill="#f3f3f1"/>
    <path id="Caminho_69" data-name="Caminho 69" d="M6.75,35.289H27.289a6.318,6.318,0,0,0,6.32-6.32v-7.9a6.318,6.318,0,0,0-6.32-6.32H6.75Z" transform="translate(13.318 27.727)" fill="#3585f3"/>
    <path id="Caminho_71" data-name="Caminho 71" d="M13.86,55.568V16.07a6.318,6.318,0,0,1,6.32-6.32H13.07a6.318,6.318,0,0,0-6.32,6.32v39.5a6.318,6.318,0,0,0,6.32,6.32h7.11A6.318,6.318,0,0,1,13.86,55.568Z" transform="translate(13.318 16.928)" fill="#d5dbe1"/>
    <path id="Caminho_72" data-name="Caminho 72" d="M6.75,14.75h7.11V35.289H6.75Z" transform="translate(13.318 27.727)" fill="#3e76af"/>
    <path id="Caminho_76" data-name="Caminho 76" d="M41.548,65.877H14.69A8.7,8.7,0,0,1,6,57.187V17.69A8.7,8.7,0,0,1,14.69,9H73.146a8.7,8.7,0,0,1,8.69,8.69V38.228H77.1V17.69a3.955,3.955,0,0,0-3.95-3.95H14.69a3.955,3.955,0,0,0-3.95,3.95v39.5a3.955,3.955,0,0,0,3.95,3.95H41.548Z" transform="translate(11.698 15.308)" fill="#28292d"/>
    <path id="Caminho_77" data-name="Caminho 77" d="M28.909,39.279H8.37A2.371,2.371,0,0,1,6,36.909V16.37A2.371,2.371,0,0,1,8.37,14H28.909a8.7,8.7,0,0,1,8.69,8.69v7.9A8.7,8.7,0,0,1,28.909,39.279ZM10.74,34.539H28.909a3.955,3.955,0,0,0,3.95-3.95v-7.9a3.955,3.955,0,0,0-3.95-3.95H10.74Z" transform="translate(11.698 26.107)" fill="#28292d"/>
    <circle id="Elipse_26" data-name="Elipse 26" cx="3.16" cy="3.16" r="3.16" transform="translate(30.337 49.587)" fill="#28292d"/>
    <ellipse id="Elipse_28" data-name="Elipse 28" cx="13.23" cy="13.23" rx="13.23" ry="13.23" transform="translate(62.978 57.632)" fill="#3585f3"/>
    <path id="Caminho_83" data-name="Caminho 83" d="M22.927,30.98A13.231,13.231,0,0,1,33.568,18.008a13.229,13.229,0,1,0-2.588,26.2,13.151,13.151,0,0,0,2.588-.258A13.231,13.231,0,0,1,22.927,30.98Z" transform="translate(45.228 39.882)" fill="#3e76af"/>
    <path id="Caminho_84" data-name="Caminho 84" d="M22.75,25.071H26.2V30.66H22.75Z" transform="translate(51.733 49.405)" fill="#28292d"/>
    <path id="Caminho_85" data-name="Caminho 85" d="M26.582,34.561H21.5V31.11h5.08c.318,0,.672-.387.672-.943s-.354-.946-.672-.946h-.959a4.271,4.271,0,0,1-4.123-4.4,4.269,4.269,0,0,1,4.123-4.395H30.7V23.88h-5.08c-.318,0-.672.387-.672.943s.354.946.672.946h.959a4.4,4.4,0,0,1,0,8.792Z" transform="translate(50.105 43.367)" fill="#28292d"/>
    <path id="Caminho_86" data-name="Caminho 86" d="M22.75,19.5H26.2v5.589H22.75Z" transform="translate(51.733 42.158)" fill="#28292d"/>
    <path id="Caminho_87" data-name="Caminho 87" d="M31.956,46.911A14.956,14.956,0,1,1,46.911,31.956,14.973,14.973,0,0,1,31.956,46.911Zm0-26.46a11.5,11.5,0,1,0,11.5,11.5A11.517,11.517,0,0,0,31.956,20.451Z" transform="translate(44.253 38.906)" fill="#28292d"/>
  </g>
</svg>
