<svg xmlns="http://www.w3.org/2000/svg" width="110.042" height="100.455" viewBox="0 0 110.042 100.455">
  <g id="upload" transform="translate(-0.584 -1.913)">
    <path id="Caminho_64" data-name="Caminho 64" d="M11.9,82.323C11.9,60.47.584,45.464.584,34.934S6.637,2.29,55.077,2.29s55.549,29.75,55.549,41.332C110.629,97.856,11.9,121.023,11.9,82.323Z" transform="translate(0 0.815)" fill="#191a1c"/>
    <g id="Grupo_10" data-name="Grupo 10" transform="translate(83.744 1.913)">
      <path id="Caminho_65" data-name="Caminho 65" d="M0,0H6.318V3.159H0Z" transform="translate(12.274 5.573) rotate(-45)" fill="#52d987"/>
      <path id="Caminho_66" data-name="Caminho 66" d="M0,0H3.159V6.318H0Z" transform="translate(0 2.234) rotate(-45)" fill="#52d987"/>
      <path id="Caminho_67" data-name="Caminho 67" d="M0,0H3.159V6.318H0Z" transform="translate(12.84 15.085) rotate(-45)" fill="#52d987"/>
    </g>
    <path id="Caminho_68" data-name="Caminho 68" d="M77.832,55.559V16.068A6.317,6.317,0,0,0,71.514,9.75H13.068A6.317,6.317,0,0,0,6.75,16.068v39.49a6.317,6.317,0,0,0,6.318,6.318H71.514A6.317,6.317,0,0,0,77.832,55.559Z" transform="translate(13.314 16.923)" fill="#f3f3f1"/>
    <path id="Caminho_69" data-name="Caminho 69" d="M6.75,35.285H27.285A6.317,6.317,0,0,0,33.6,28.966v-7.9a6.317,6.317,0,0,0-6.318-6.318H6.75Z" transform="translate(13.314 27.719)" fill="#52d987"/>
    <path id="Caminho_70" data-name="Caminho 70" d="M49.763,33.756,34.756,18.75,19.75,33.756h9.478V50.342a1.58,1.58,0,0,0,1.58,1.58h7.9a1.58,1.58,0,0,0,1.58-1.58V33.756Z" transform="translate(41.384 36.356)" fill="#52d987"/>
    <path id="Caminho_71" data-name="Caminho 71" d="M13.858,55.559V16.068A6.317,6.317,0,0,1,20.177,9.75H13.068A6.317,6.317,0,0,0,6.75,16.068v39.49a6.317,6.317,0,0,0,6.318,6.318h7.108A6.317,6.317,0,0,1,13.858,55.559Z" transform="translate(13.314 16.923)" fill="#d5dbe1"/>
    <path id="Caminho_72" data-name="Caminho 72" d="M6.75,14.75h7.108V35.285H6.75Z" transform="translate(13.314 27.719)" fill="#00b871"/>
    <path id="Caminho_73" data-name="Caminho 73" d="M34.756,18.75,19.75,33.756h7.108L38.31,22.3Z" transform="translate(41.384 36.356)" fill="#00b871"/>
    <path id="Caminho_74" data-name="Caminho 74" d="M29.858,40.086V23.5H22.75V40.086a1.58,1.58,0,0,0,1.58,1.58h7.108A1.58,1.58,0,0,1,29.858,40.086Z" transform="translate(47.861 46.612)" fill="#00b871"/>
    <path id="Caminho_75" data-name="Caminho 75" d="M40.325,55.91h-7.9a3.955,3.955,0,0,1-3.949-3.949V37.745H21.37A2.368,2.368,0,0,1,19.7,33.7L34.7,18.694a2.37,2.37,0,0,1,3.352,0L53.06,33.7a2.368,2.368,0,0,1-1.674,4.044H44.274V51.961A3.955,3.955,0,0,1,40.325,55.91Zm-7.108-4.739h6.318v-15.8A2.37,2.37,0,0,1,41.9,33.006h3.756l-9.285-9.285-9.285,9.285h3.756a2.37,2.37,0,0,1,2.369,2.369Z" transform="translate(39.764 34.737)" fill="#28292d"/>
    <path id="Caminho_76" data-name="Caminho 76" d="M41.541,65.866H14.688A8.7,8.7,0,0,1,6,57.178V17.688A8.7,8.7,0,0,1,14.688,9H73.133a8.7,8.7,0,0,1,8.688,8.688V38.223H77.082V17.688a3.955,3.955,0,0,0-3.949-3.949H14.688a3.955,3.955,0,0,0-3.949,3.949v39.49a3.955,3.955,0,0,0,3.949,3.949H41.541Z" transform="translate(11.694 15.303)" fill="#28292d"/>
    <path id="Caminho_77" data-name="Caminho 77" d="M28.9,39.274H8.369A2.37,2.37,0,0,1,6,36.9V16.369A2.37,2.37,0,0,1,8.369,14H28.9a8.7,8.7,0,0,1,8.688,8.688v7.9A8.7,8.7,0,0,1,28.9,39.274ZM10.739,34.535H28.9a3.955,3.955,0,0,0,3.949-3.949v-7.9A3.955,3.955,0,0,0,28.9,18.739H10.739Z" transform="translate(11.694 26.1)" fill="#28292d"/>
    <circle id="Elipse_26" data-name="Elipse 26" cx="3.159" cy="3.159" r="3.159" transform="translate(30.331 49.577)" fill="#28292d"/>
  </g>
</svg>
