<svg xmlns="http://www.w3.org/2000/svg" width="55.032" height="50.237" viewBox="0 0 55.032 50.237">
  <g id="upload" transform="translate(-0.584 -1.913)">
    <path id="Caminho_64" data-name="Caminho 64" d="M6.245,42.314c0-10.928-5.661-18.433-5.661-23.7S3.611,2.29,27.836,2.29s27.78,14.878,27.78,20.67C55.617,50.083,6.245,61.668,6.245,42.314Z" transform="translate(0 0.219)" fill="#f2f3f5"/>
    <g id="Grupo_10" data-name="Grupo 10" transform="translate(42.172 1.913)">
      <path id="Caminho_65" data-name="Caminho 65" d="M0,0H3.16V1.58H0Z" transform="translate(6.138 2.787) rotate(-45)" fill="#3585f3"/>
      <path id="Caminho_66" data-name="Caminho 66" d="M0,0H1.58V3.16H0Z" transform="translate(0 1.117) rotate(-45)" fill="#3585f3"/>
      <path id="Caminho_67" data-name="Caminho 67" d="M0,0H1.58V3.16H0Z" transform="translate(6.421 7.544) rotate(-45)" fill="#3585f3"/>
    </g>
    <path id="Caminho_68" data-name="Caminho 68" d="M42.3,32.659V12.91a3.159,3.159,0,0,0-3.16-3.16H9.91a3.159,3.159,0,0,0-3.16,3.16V32.659a3.159,3.159,0,0,0,3.16,3.16H39.138A3.159,3.159,0,0,0,42.3,32.659Z" transform="translate(3.576 4.545)" fill="#f3f3f1"/>
    <path id="Caminho_69" data-name="Caminho 69" d="M6.75,25.019H17.019a3.159,3.159,0,0,0,3.16-3.16V17.91a3.159,3.159,0,0,0-3.16-3.16H6.75Z" transform="translate(3.576 7.445)" fill="#3585f3"/>
    <path id="Caminho_71" data-name="Caminho 71" d="M10.3,32.659V12.91a3.159,3.159,0,0,1,3.16-3.16H9.91a3.159,3.159,0,0,0-3.16,3.16V32.659a3.159,3.159,0,0,0,3.16,3.16h3.555A3.159,3.159,0,0,1,10.3,32.659Z" transform="translate(3.576 4.545)" fill="#d5dbe1"/>
    <path id="Caminho_72" data-name="Caminho 72" d="M6.75,14.75H10.3V25.019H6.75Z" transform="translate(3.576 7.445)" fill="#3e76af"/>
    <path id="Caminho_76" data-name="Caminho 76" d="M23.774,37.439H10.345A4.348,4.348,0,0,1,6,33.094V13.345A4.348,4.348,0,0,1,10.345,9H39.573a4.348,4.348,0,0,1,4.345,4.345V23.614h-2.37V13.345a1.978,1.978,0,0,0-1.975-1.975H10.345A1.978,1.978,0,0,0,8.37,13.345V33.094a1.978,1.978,0,0,0,1.975,1.975H23.774Z" transform="translate(3.141 4.11)" fill="#28292d"/>
    <path id="Caminho_77" data-name="Caminho 77" d="M17.454,26.639H7.185A1.185,1.185,0,0,1,6,25.454V15.185A1.185,1.185,0,0,1,7.185,14H17.454A4.348,4.348,0,0,1,21.8,18.345v3.95A4.348,4.348,0,0,1,17.454,26.639ZM8.37,24.269h9.085a1.978,1.978,0,0,0,1.975-1.975v-3.95a1.978,1.978,0,0,0-1.975-1.975H8.37Z" transform="translate(3.141 7.01)" fill="#28292d"/>
    <circle id="Elipse_26" data-name="Elipse 26" cx="1.58" cy="1.58" r="1.58" transform="translate(15.461 25.75)" fill="#28292d"/>
    <ellipse id="Elipse_28" data-name="Elipse 28" cx="6.615" cy="6.615" rx="6.615" ry="6.615" transform="translate(31.781 29.772)" fill="#3585f3"/>
    <path id="Caminho_83" data-name="Caminho 83" d="M20.338,24.365a6.615,6.615,0,0,1,5.321-6.486,6.615,6.615,0,1,0-1.294,13.1,6.575,6.575,0,0,0,1.294-.129A6.615,6.615,0,0,1,20.338,24.365Z" transform="translate(14.031 12.022)" fill="#3e76af"/>
    <path id="Caminho_84" data-name="Caminho 84" d="M22.75,25.071h1.726v2.794H22.75Z" transform="translate(14.783 13.123)" fill="#28292d"/>
    <path id="Caminho_85" data-name="Caminho 85" d="M24.04,27.495H21.5V25.769h2.54c.159,0,.336-.193.336-.472s-.177-.473-.336-.473h-.48a2.2,2.2,0,0,1,0-4.4H26.1v1.726h-2.54c-.159,0-.336.193-.336.472s.177.473.336.473h.48a2.2,2.2,0,0,1,0,4.4Z" transform="translate(14.595 12.425)" fill="#28292d"/>
    <path id="Caminho_86" data-name="Caminho 86" d="M22.75,19.5h1.726v2.794H22.75Z" transform="translate(14.783 12.285)" fill="#28292d"/>
    <path id="Caminho_87" data-name="Caminho 87" d="M24.478,31.956a7.478,7.478,0,1,1,7.478-7.478A7.486,7.486,0,0,1,24.478,31.956Zm0-13.23a5.752,5.752,0,1,0,5.752,5.752A5.759,5.759,0,0,0,24.478,18.726Z" transform="translate(13.918 11.909)" fill="#28292d"/>
  </g>
</svg>
