<svg xmlns="http://www.w3.org/2000/svg" width="110.031" height="100.445" viewBox="0 0 110.031 100.445">
  <g id="Grupo_12" data-name="Grupo 12" transform="translate(-1739.937 -493.456)">
    <g id="upload" transform="translate(1739.938 493.456)">
      <path id="Caminho_64" data-name="Caminho 64" d="M11.9,82.314C11.9,60.464.584,45.459.584,34.931S6.636,2.29,55.072,2.29s55.543,29.747,55.543,41.328C110.618,97.846,11.9,121.011,11.9,82.314Z" transform="translate(-0.584 -1.098)" fill="#191a1c"/>
      <g id="Grupo_10" data-name="Grupo 10" transform="translate(83.151 0)">
        <path id="Caminho_65" data-name="Caminho 65" d="M0,0H6.318V3.159H0Z" transform="translate(12.273 5.572) rotate(-45)" fill="#e83f5b"/>
        <path id="Caminho_66" data-name="Caminho 66" d="M0,0H3.159V6.318H0Z" transform="translate(0 2.233) rotate(-45)" fill="#e83f5b"/>
        <path id="Caminho_67" data-name="Caminho 67" d="M0,0H3.159V6.318H0Z" transform="translate(12.839 15.084) rotate(-45)" fill="#e83f5b"/>
      </g>
      <path id="Caminho_68" data-name="Caminho 68" d="M77.825,55.554V16.068A6.316,6.316,0,0,0,71.507,9.75H13.068A6.316,6.316,0,0,0,6.75,16.068V55.554a6.316,6.316,0,0,0,6.318,6.318H71.507A6.316,6.316,0,0,0,77.825,55.554Z" transform="translate(12.728 15.008)" fill="#f3f3f1"/>
      <path id="Caminho_69" data-name="Caminho 69" d="M6.75,35.283H27.283A6.316,6.316,0,0,0,33.6,28.965v-7.9a6.316,6.316,0,0,0-6.318-6.318H6.75Z" transform="translate(12.728 25.802)" fill="#e83f5b"/>
      <path id="Caminho_71" data-name="Caminho 71" d="M13.858,55.554V16.068A6.316,6.316,0,0,1,20.175,9.75H13.068A6.316,6.316,0,0,0,6.75,16.068V55.554a6.316,6.316,0,0,0,6.318,6.318h7.108A6.316,6.316,0,0,1,13.858,55.554Z" transform="translate(12.728 15.008)" fill="#d5dbe1"/>
      <path id="Caminho_72" data-name="Caminho 72" d="M6.75,14.75h7.108V35.283H6.75Z" transform="translate(12.728 25.802)" fill="#cb344d"/>
      <g id="Grupo_11" data-name="Grupo 11" transform="translate(92.925 88.726) rotate(180)">
        <path id="Caminho_70" data-name="Caminho 70" d="M30.009,15,15,0,0,15H9.477V31.589a1.58,1.58,0,0,0,1.579,1.579h7.9a1.58,1.58,0,0,0,1.579-1.579V15Z" transform="translate(2.369 2.368)" fill="#e83f5b"/>
        <path id="Caminho_73" data-name="Caminho 73" d="M15,0,0,15H7.108L18.558,3.554Z" transform="translate(2.369 2.368)" fill="#cb344d"/>
        <path id="Caminho_74" data-name="Caminho 74" d="M7.108,16.584V0H0V16.584a1.58,1.58,0,0,0,1.579,1.579H8.687A1.58,1.58,0,0,1,7.108,16.584Z" transform="translate(11.846 17.373)" fill="#cb344d"/>
        <path id="Caminho_75" data-name="Caminho 75" d="M21.323,37.906h-7.9a3.954,3.954,0,0,1-3.949-3.949V19.742H2.369A2.368,2.368,0,0,1,.7,15.7l15-15a2.37,2.37,0,0,1,3.352,0l15,15a2.368,2.368,0,0,1-1.674,4.043H25.271V33.957A3.954,3.954,0,0,1,21.323,37.906Zm-7.108-4.738h6.318V17.373A2.37,2.37,0,0,1,22.9,15h3.756L17.374,5.72,8.09,15h3.756a2.37,2.37,0,0,1,2.369,2.369Z" transform="translate(0 0)" fill="#28292d"/>
      </g>
      <path id="Caminho_76" data-name="Caminho 76" d="M41.538,65.86H14.687A8.694,8.694,0,0,1,6,57.173V17.687A8.694,8.694,0,0,1,14.687,9H73.126a8.694,8.694,0,0,1,8.687,8.687V38.22H77.075V17.687a3.954,3.954,0,0,0-3.949-3.949H14.687a3.954,3.954,0,0,0-3.949,3.949V57.173a3.954,3.954,0,0,0,3.949,3.949H41.538Z" transform="translate(11.109 13.389)" fill="#28292d"/>
      <path id="Caminho_77" data-name="Caminho 77" d="M28.9,39.271H8.369A2.37,2.37,0,0,1,6,36.9V16.369A2.37,2.37,0,0,1,8.369,14H28.9a8.694,8.694,0,0,1,8.687,8.687v7.9A8.694,8.694,0,0,1,28.9,39.271ZM10.738,34.533H28.9a3.954,3.954,0,0,0,3.949-3.949v-7.9A3.954,3.954,0,0,0,28.9,18.738H10.738Z" transform="translate(11.109 24.183)" fill="#28292d"/>
      <circle id="Elipse_26" data-name="Elipse 26" cx="3.159" cy="3.159" r="3.159" transform="translate(29.744 47.66)" fill="#28292d"/>
    </g>
  </g>
</svg>
